<?xml version="1.0" standalone="no"?>
<!DOCTYPE svg PUBLIC "-//W3C//DTD SVG 20010904//EN"
 "http://www.w3.org/TR/2001/REC-SVG-20010904/DTD/svg10.dtd">
<svg version="1.0" xmlns="http://www.w3.org/2000/svg"
 width="1440.000000pt" height="700.000000pt" viewBox="0 0 1440.000000 700.000000"
 preserveAspectRatio="xMidYMid meet">

<g transform="translate(0.000000,700.000000) scale(0.100000,-0.100000)"
fill="#000000" stroke="none">
<path d="M7005 5894 c-600 -63 -1094 -293 -1500 -699 -475 -475 -726 -1110
-702 -1775 7 -186 17 -263 53 -435 137 -641 557 -1219 1129 -1556 253 -149
562 -258 855 -304 147 -22 428 -30 580 -16 1108 105 1983 934 2157 2042 25
161 25 538 -1 699 -116 741 -547 1369 -1192 1738 -247 141 -540 242 -834 287
-101 16 -458 28 -545 19z m391 -305 c398 -38 797 -197 1099 -437 102 -81 267
-245 345 -342 193 -242 346 -563 410 -858 27 -125 50 -326 50 -443 0 -405
-126 -826 -347 -1162 -299 -454 -775 -783 -1301 -897 -604 -132 -1231 7 -1727
384 -318 241 -574 596 -708 982 -182 524 -149 1089 92 1589 138 285 312 509
553 710 422 354 986 528 1534 474z"/>
<path d="M6280 4682 c-258 -68 -406 -342 -326 -607 23 -76 93 -173 163 -227
268 -203 655 -73 745 251 98 353 -225 676 -582 583z"/>
<path d="M7871 4684 c-234 -63 -388 -293 -351 -526 16 -107 58 -188 137 -267
37 -37 90 -77 116 -89 251 -117 520 -26 639 215 40 81 43 92 46 187 3 84 0
112 -18 165 -81 242 -330 379 -569 315z"/>
<path d="M7090 3233 c-59 -11 -173 -76 -228 -131 -274 -275 -118 -743 268
-803 175 -27 361 55 460 203 94 140 107 319 34 472 -54 114 -171 212 -301 251
-45 14 -175 18 -233 8z"/>
</g>
</svg>
